<svg width="112" height="103" viewBox="0 0 112 103" fill="none" xmlns="http://www.w3.org/2000/svg">
<path d="M35.1028 29.64C30.7682 29.6862 28.0079 24.8563 26.1952 20.2675C24.8835 24.6252 22.4623 28.3869 18.0239 28.6508C13.4859 28.9124 9.20251 24.7381 4.90932 15.8659C2.04867 9.95404 0.222264 4.08334 0.146 3.83646C-0.282851 2.44906 0.49383 0.977104 1.88123 0.547757C3.26911 0.118883 4.74153 0.895063 5.17086 2.28246C9.11497 15.0211 14.7732 23.4336 17.6424 23.4031C17.6654 23.4028 17.6888 23.4016 17.7117 23.4004C21.2136 23.1924 22.6961 13.6352 22.4199 6.81601C22.3642 5.44042 23.3792 4.25378 24.7475 4.09672C26.1148 3.94206 27.3731 4.86397 27.6309 6.21637C27.6405 6.26648 28.6042 11.2742 30.2833 16.1466C32.5815 22.818 34.5258 24.3002 35.0191 24.3772C35.259 24.1862 36.9187 22.5576 37.5612 14.0483C37.957 8.81434 37.7434 3.79579 37.7414 3.74608C37.6777 2.29502 38.8022 1.06705 40.2528 1.00284C41.689 0.936381 42.9313 2.06264 42.996 3.51369C43.137 6.69491 43.6073 22.8187 39.032 27.806C37.7137 29.2436 36.2671 29.5942 35.2854 29.6352C35.2242 29.6378 35.163 29.6394 35.1028 29.64Z" fill="black"/>
<path d="M62.7176 35.5659C62.6407 35.5667 62.5627 35.5647 62.4833 35.5598C60.6019 35.4454 58.8091 34.446 52.8332 22.5586C49.9593 16.8421 47.388 11.0706 47.3621 11.0131C46.7717 9.68571 47.3692 8.1315 48.6961 7.54118C50.0224 6.9499 51.5776 7.54828 52.1679 8.87466C55.9415 17.357 59.9522 25.2099 62.2439 28.745C63.7933 24.4842 66.1589 14.8645 68.1194 4.56481C68.3906 3.13792 69.7707 2.20227 71.1948 2.47306C72.6212 2.74477 73.5577 4.12151 73.2865 5.5484C73.2729 5.61883 71.9208 12.7006 70.2506 19.6706C69.2598 23.8068 68.3481 27.1116 67.541 29.4929C66.7208 31.9126 65.4926 35.5364 62.7176 35.5659Z" fill="black"/>
<path d="M108.614 42.6551C108.59 42.6554 108.567 42.6557 108.543 42.6549C102.727 42.5624 88.8213 41.9492 85.3143 38.2597C84.2964 37.1879 84.1137 36.0628 84.1401 35.3075C84.2401 32.4369 87.0209 29.62 93.1565 26.1735C93.5477 25.9537 93.938 25.7401 94.3231 25.5333C93.8099 25.38 93.2879 25.2182 92.7658 25.0487C87.9425 23.4791 82.4497 21.1385 82.7866 16.9342C82.9846 14.4623 85.2903 11.673 95.8981 6.09213C101.667 3.05743 107.291 0.597121 107.528 0.494186C108.859 -0.087582 110.409 0.521369 110.989 1.85265C111.57 3.18391 110.962 4.73393 109.631 5.31474C98.5663 10.144 90.0751 15.1476 88.2526 17.2499C89.8571 18.7047 96.2544 20.9351 102.514 22.161C103.649 22.3832 104.505 23.3204 104.625 24.4701C104.744 25.6203 104.098 26.7131 103.034 27.1639C97.1114 29.6699 91.2869 33.1518 89.7427 35.0197C92.2848 36.2015 100.498 37.265 108.627 37.3961C110.079 37.4193 111.238 38.6153 111.214 40.0673C111.191 41.4959 110.034 42.64 108.614 42.6551Z" fill="black"/>
<path d="M106.595 72.0246C106.392 72.0268 106.185 72.0056 105.979 71.958C105.727 71.9005 99.7402 70.5263 93.7106 68.7409C82.8928 65.5381 79.603 63.4753 80.1717 60.2507C80.4797 58.5073 81.6842 56.5187 92.8911 51.3943C98.3359 48.9044 103.616 46.8375 103.839 46.7509C105.192 46.2225 106.717 46.891 107.245 48.2434C107.773 49.5967 107.105 51.1216 105.752 51.65C98.3242 54.5517 89.8516 58.4262 86.4924 60.6267C90.144 62.3647 99.2427 65.0207 107.152 66.831C108.567 67.1549 109.453 68.5652 109.129 69.9812C108.852 71.1901 107.783 72.012 106.595 72.0246Z" fill="black"/>
<path d="M11.4697 63.9021C10.4613 63.9128 9.49313 63.3402 9.04761 62.3638C8.44492 61.0423 9.02749 59.4825 10.349 58.8798C17.8024 55.4781 26.22 51.3675 30.4232 48.9883C26.0328 47.2567 17.1712 44.635 9.39842 42.6507C7.99116 42.2912 7.14151 40.8591 7.50096 39.4518C7.86041 38.0445 9.29309 37.1968 10.6994 37.5543C10.7603 37.5699 16.8266 39.1215 22.9337 40.952C35.4319 44.6974 36.8459 46.1011 37.4791 47.6762C37.8395 48.5713 37.7572 49.5496 37.2541 50.3592C36.8193 51.0586 35.4973 53.1862 12.532 63.6641C12.187 63.8222 11.8259 63.8983 11.4697 63.9021Z" fill="black"/>
<path d="M4.86806 103C3.59667 103 2.47829 102.076 2.27364 100.78C2.04749 99.345 3.02626 97.9986 4.46118 97.7719C4.52621 97.7619 11.0371 96.7267 17.8244 95.1005C28.2466 92.6026 31.1165 90.6905 31.8432 90.0335C31.3986 89.4559 29.6677 87.813 23.4585 85.7269C19.0194 84.2355 14.6792 83.3247 14.6357 83.3156C13.4681 83.0722 12.6103 82.0739 12.5462 80.8833C12.4812 79.6927 13.2257 78.6073 14.3603 78.2396C16.9242 77.4081 20.0426 76.3853 22.7939 75.4697C18.9467 74.368 13.9506 73.023 9.27096 71.8219C7.86378 71.4609 7.01603 70.0279 7.37752 68.6212C7.73852 67.2145 9.17249 66.3653 10.5782 66.7278C10.6304 66.7407 15.8484 68.0814 21.0104 69.5067C31.7601 72.4745 33.142 72.9393 33.3781 75.1545C33.4982 76.2786 32.9163 77.3354 31.8949 77.846C31.2432 78.1716 27.954 79.2982 24.3727 80.4902C24.8537 80.6461 25.3395 80.8086 25.8268 80.9779C33.7391 83.7339 37.3639 86.7142 37.2339 90.3577C37.0976 94.179 32.1918 96.9461 20.3017 99.9092C12.866 101.762 5.58767 102.919 5.28166 102.967C5.14252 102.989 5.00433 103 4.86806 103Z" fill="black"/>
<path d="M60.6454 101.63C59.45 101.63 58.3684 100.809 58.0859 99.5949C55.4059 88.0644 52.5734 79.1279 50.853 75.4074C49.059 78.917 46.0682 87.2268 43.1691 97.9373C42.789 99.3392 41.345 100.17 39.9435 99.7887C38.5411 99.4095 37.7125 97.9655 38.0922 96.5636C38.1099 96.4985 39.8862 89.9527 42.0475 83.492C46.2107 71.0496 48.3055 68.7732 50.9305 68.7731C53.6077 68.7731 55.6756 71.1997 59.5524 84.464C61.5658 91.3541 63.193 98.3345 63.2092 98.4043C63.5382 99.8192 62.6579 101.233 61.2431 101.561C61.0427 101.607 60.8424 101.63 60.6454 101.63Z" fill="black"/>
<path d="M105.929 102.952C104.825 102.952 103.798 102.252 103.432 101.148C103.415 101.095 101.672 95.8463 99.3146 90.481C95.4091 81.5913 93.1953 80.0579 92.7845 79.8384C91.2148 80.2434 88.3268 86.467 86.9439 93.995C86.7139 95.2434 85.6257 96.149 84.3571 96.149L84.3471 96.149C83.0743 96.1447 81.9875 95.2291 81.767 93.9754C81.7589 93.9295 80.9485 89.3713 79.428 85.0336C77.372 79.171 75.6234 78.1884 75.2404 78.2386C73.1169 78.5709 70.6062 86.927 70.0744 95.4333C69.9841 96.8835 68.7351 97.9947 67.2859 97.8943C65.8356 97.8035 64.7345 96.555 64.8249 95.1058C64.8378 94.9069 65.1419 90.1775 66.2436 85.2464C67.9448 77.629 70.622 73.637 74.429 73.0426C79.2745 72.2857 82.4719 77.7437 84.4557 83.3447C86.188 78.9491 88.7949 74.839 92.5268 74.5726C96.1904 74.3163 99.5541 78.1869 103.76 87.5337C106.41 93.4206 108.345 99.2516 108.426 99.4964C108.882 100.875 108.133 102.363 106.755 102.819C106.48 102.909 106.202 102.952 105.929 102.952Z" fill="black"/>
</svg>
